<?xml version="1.0" encoding="UTF-8"?>
<svg xmlns="http://www.w3.org/2000/svg" viewBox="0 0 1600 400">
  <defs>
    <style>
      .cls-1 {
        fill: #1e1e1e;
      }

      .cls-2 {
        fill: #2a2f36;
        font-family: Inter-SemiBold, Inter;
        font-size: 106px;
        font-variation-settings: 'wght' 600, 'slnt' 0;
        font-weight: 600;
      }

      .cls-3 {
        fill: #3173d2;
      }

      .cls-4 {
        fill: #a3a9b5;
        font-family: Inter-Light, Inter;
        font-size: 72px;
        font-variation-settings: 'wght' 300, 'slnt' 0;
        font-weight: 300;
      }
    </style>
  </defs>
  <g id="Developments">
    <text class="cls-4" transform="translate(827.68 310.83)"><tspan x="0" y="0">Developments</tspan></text>
  </g>
  <g id="Icon">
    <g>
      <path class="cls-1" d="M415.86,348.95l63.44-116.4c.28-.53.83-.85,1.43-.85h0c.9,0,1.63.73,1.63,1.63v164.38c0,.9.73,1.63,1.63,1.63h60.89c.9,0,1.63-.73,1.63-1.63V124.14c0-.9-.73-1.63-1.63-1.63h-78.96c-.6,0-1.14.33-1.43.85l-114.83,194.52M415.86,348.95l-66.21-31.07M231,222.34h-9.02c-.9,0-1.63.73-1.63,1.63l.55,173.73c0,.9.73,1.62,1.63,1.62h60.89c.9,0,1.63-.74,1.63-1.64l-.84-112.38c0-1.13-.42-2.23-1.17-3.09l-52.04-59.88"/>
      <path class="cls-3" d="M146.5,392.97V6.86c.04-3.43,2.84-6.19,6.27-6.19h142.16c23.59,1,29.7,2.54,45.33,11.59,16.21,9.38,27.11,22.72,35.91,38.04,8.8,15.32,13.21,33.32,13.21,53.98s-4.48,38.61-13.44,53.53c-8.96,14.92-21.91,26.34-38.86,34.28-16.95,7.94-89.39,10.46-113.41,10.46h-52.02c-3.46,0-6.27-2.81-6.27-6.27v-40.58c0-3.47,2.82-6.28,6.29-6.27l96.27,1.07c12.62,0,23.11-1.73,31.46-5.19,8.35-3.46,14.58-8.65,18.71-15.58,4.12-6.92,6.18-15.52,6.18-25.81s-2.06-19.14-6.18-26.27c-4.12-7.13-9.73-17.07-18.13-20.78-8.4-3.72-62.93-2.14-75.65-2.14h-3.54c-3.43,0-2.96,2.75-3.01,6.18l-2.68,332.24c-.05,3.43-2.84,6.18-6.27,6.18h-56.04c-3.5,0-6.32-2.86-6.27-6.35ZM275.17,166.6l148.55,159.17c1.72,1.97,2.04,4.79.8,7.09l-29.05,57.16c-2.08,3.87-7.39,4.46-10.27,1.14l-184.24-205.99c-2.94-3.4-1.46-8.69,2.81-10.07l64.75-10.34c2.38-.77,5-.05,6.65,1.84Z"/>
    </g>
  </g>
  <g id="Roommetrics">
    <text class="cls-2" transform="translate(670.22 222.34)"><tspan x="0" y="0">ROOMMETRICS</tspan></text>
  </g>
</svg>