<?xml version="1.0" encoding="UTF-8"?>
<svg id="Icon" xmlns="http://www.w3.org/2000/svg" viewBox="0 0 500 500">
  <defs>
    <style>
      .cls-1 {
        fill: #1e1e1e;
      }

      .cls-2 {
        fill: #3173d2;
      }
    </style>
  </defs>
  <path class="cls-1" d="M334.97,432.46l77.71-142.59c.35-.64,1.02-1.05,1.75-1.05h0c1.1,0,1.99.89,1.99,1.99v201.36c0,1.1.89,1.99,1.99,1.99h74.59c1.1,0,1.99-.89,1.99-1.99V157.07c0-1.1-.89-1.99-1.99-1.99h-96.72c-.73,0-1.4.4-1.75,1.04l-140.67,238.29M334.97,432.46l-81.1-38.06M108.52,277.37h-11.05c-1.1,0-2,.9-1.99,2l.67,212.82c0,1.1.9,1.98,1.99,1.98h74.58c1.11,0,2-.9,1.99-2.01l-1.02-137.67c-.01-1.39-.52-2.73-1.43-3.78l-63.74-73.35"/>
  <path class="cls-2" d="M5,486.39V13.41c.05-4.2,3.48-7.58,7.68-7.58h174.15c28.89,1.22,36.39,3.11,55.53,14.19,19.86,11.5,33.21,27.84,43.99,46.6,10.79,18.77,16.18,40.81,16.18,66.13s-5.49,47.3-16.46,65.57c-10.98,18.27-26.85,32.27-47.61,42-20.77,9.73-109.5,12.82-138.93,12.82h-63.72c-4.24,0-7.68-3.44-7.68-7.68v-49.71c0-4.25,3.45-7.7,7.71-7.68l117.93,1.31c15.46,0,28.31-2.12,38.54-6.36,10.23-4.24,17.87-10.6,22.92-19.08,5.05-8.48,7.58-19.02,7.58-31.62s-2.52-23.45-7.58-32.18c-5.05-8.73-11.93-20.91-22.21-25.46-10.29-4.55-77.09-2.63-92.68-2.63h-4.34c-4.2,0-3.63,3.37-3.69,7.57l-3.29,406.99c-.06,4.2-3.48,7.57-7.68,7.57H12.68c-4.28,0-7.74-3.5-7.68-7.78ZM162.63,209.09l181.97,194.98c2.11,2.41,2.5,5.87.99,8.69l-35.59,70.02c-2.55,4.74-9.06,5.46-12.58,1.39L71.72,231.84c-3.6-4.16-1.79-10.64,3.45-12.34l79.31-12.67c2.92-.94,6.12-.06,8.15,2.25Z"/>
</svg>