<?xml version="1.0" encoding="UTF-8"?>
<svg xmlns="http://www.w3.org/2000/svg" viewBox="0 0 1000 1000">
  <defs>
    <style>
      .cls-1 {
        fill: #1e1e1e;
      }

      .cls-2 {
        fill: #2a2f36;
        font-family: Inter-SemiBold, Inter;
        font-size: 106px;
        font-variation-settings: 'wght' 600, 'slnt' 0;
        font-weight: 600;
      }

      .cls-3 {
        fill: #3173d2;
      }

      .cls-4 {
        fill: #a3a9b5;
        font-family: Inter-Light, Inter;
        font-size: 72px;
        font-variation-settings: 'wght' 300, 'slnt' 0;
        font-weight: 300;
      }
    </style>
  </defs>
  <g id="Developments">
    <text class="cls-4" transform="translate(257.58 926.99)"><tspan x="0" y="0">Developments</tspan></text>
  </g>
  <g id="Icon">
    <g>
      <path class="cls-1" d="M621.38,659.31l111.01-203.7c.5-.92,1.46-1.5,2.51-1.5h0c1.57,0,2.85,1.27,2.85,2.85v287.66c0,1.57,1.27,2.85,2.85,2.85h106.56c1.57,0,2.85-1.27,2.85-2.85v-478.73c0-1.57-1.27-2.85-2.85-2.85h-138.18c-1.04,0-2,.57-2.5,1.49l-200.95,340.42M621.38,659.31l-115.86-54.37M297.88,437.75h-15.79c-1.58,0-2.85,1.28-2.85,2.86l.96,304.03c0,1.57,1.28,2.84,2.85,2.84h106.55c1.58,0,2.86-1.29,2.85-2.87l-1.46-196.67c-.01-1.99-.74-3.9-2.04-5.4l-91.06-104.79"/>
      <path class="cls-3" d="M150,736.35l4.73-675.69c.08-6,4.97-10.83,10.97-10.83h244.05c41.27,1.74,51.98,4.44,79.34,20.28,28.37,16.42,47.44,39.77,62.85,66.58,15.41,26.82,23.12,58.31,23.12,94.47s-7.84,67.57-23.52,93.67c-15.68,26.1-38.35,46.1-68.01,60-29.66,13.9-156.42,18.31-198.47,18.31h-91.04c-6.06,0-10.97-4.91-10.97-10.97v-71.02c0-6.07,4.93-10.99,11.01-10.97l168.47,1.87c22.09,0,40.44-3.03,55.05-9.09,14.61-6.06,25.52-15.14,32.74-27.26,7.22-12.11,10.82-27.17,10.82-45.17s-3.61-33.49-10.82-45.97c-7.22-12.47-17.04-29.86-31.73-36.37-14.7-6.5-110.13-3.75-132.39-3.75h-6.2c-6,0-5.18,4.81-5.27,10.81l-4.7,581.41c-.09,6-4.98,10.81-10.97,10.81h-98.08c-6.12,0-11.05-5-10.97-11.12ZM375.18,340.21l259.96,278.54c3.01,3.44,3.57,8.39,1.41,12.41l-50.85,100.03c-3.64,6.78-12.94,7.81-17.97,1.99L245.31,372.71c-5.14-5.94-2.55-15.21,4.92-17.62l113.31-18.09c4.17-1.35,8.75-.08,11.64,3.22Z"/>
    </g>
  </g>
  <g id="Roommetrics">
    <text class="cls-2" transform="translate(97.29 851.06)"><tspan x="0" y="0">ROOMMETRICS</tspan></text>
  </g>
</svg>